<svg version="1.1" id="Layer_1" xmlns="http://www.w3.org/2000/svg" xmlns:xlink="http://www.w3.org/1999/xlink" x="0px" y="0px" viewBox="0 0 95 95" style="enable-background:new 0 0 95 95;" xml:space="preserve" class="logo">
  <defs>
    
  </defs>
<g>
&#x9;
&#x9;&#x9;<rect x="34.8" y="36" transform="matrix(0.4241 0.9056 -0.9056 0.4241 71.3904 -14.9512)" style="fill:#00578E;" width="25.2" height="25.2"></rect>
&#x9;
&#x9;&#x9;<rect x="22.2" y="6.6" transform="matrix(0.4241 0.9056 -0.9056 0.4241 37.4551 -20.5025)" style="fill:#D8E0ED;" width="25.2" height="25.2"></rect>
&#x9;
&#x9;&#x9;<rect x="5" y="50.8" transform="matrix(0.4241 0.9056 -0.9056 0.4241 67.5745 20.6203)" style="fill:#6B95BE;" width="25.2" height="25.2"></rect>
&#x9;
&#x9;&#x9;<rect x="69.6" y="66.4" transform="matrix(-0.4559 -0.89 0.89 -0.4559 45.963 174.1142)" style="fill:#E48D1A;" width="13.1" height="13.1"></rect>
&#x9;
&#x9;&#x9;<rect x="86.4" y="59.7" transform="matrix(-0.4258 -0.9048 0.9048 -0.4258 70.867 171.2279)" style="fill:#2DA343;" width="6.8" height="6.8"></rect>
&#x9;
&#x9;&#x9;<rect x="77.1" y="85.3" transform="matrix(-0.4254 -0.905 0.905 -0.4254 34.5684 199.4388)" style="fill:#E03A3E;" width="6.9" height="6.9"></rect>
</g>
</svg>